{
  "asset": {
    "version": "2.0",
    "generator": "THREE.GLTFExporter"
  },
  "scenes": [
    {
      "nodes": [
        0
      ]
    }
  ],
  "scene": 0,
  "nodes": [
    {
      "children": [
        5
      ],
      "matrix": [
        0.01,
        0,
        0,
        0,
        0,
        0.01,
        0,
        0,
        0,
        0,
        0.01,
        0,
        0,
        0,
        0,
        1
      ]
    },
    {
      "matrix": [
        0.5883484054145521,
        0.39223227027636803,
        -0.7071067811865476,
        0,
        -0.554700196225229,
        0.8320502943378437,
        0,
        0,
        0.5883484054145521,
        0.39223227027636803,
        0.7071067811865476,
        0,
        0,
        0,
        0,
        1
      ],
      "name": "Directional Light",
      "extensions": {
        "KHR_lights_punctual": {
          "light": 0
        }
      }
    },
    {
      "matrix": [
        1,
        0,
        0,
        0,
        0,
        1,
        0,
        0,
        0,
        0,
        1,
        0,
        0,
        25.17382379703686,
        0,
        1
      ],
      "name": "Triangle",
      "mesh": 0
    },
    {
      "matrix": [
        1,
        0,
        -5.810788917734356e-17,
        0,
        -3.558082024312146e-33,
        1,
        -6.123233995736766e-17,
        0,
        5.810788917734356e-17,
        6.123233995736766e-17,
        1,
        0,
        1.5223679862094634e-13,
        -2.7304097807188512e-15,
        663.4204312890658,
        1
      ],
      "camera": 0
    },
    {
      "matrix": [
        1,
        0,
        0,
        0,
        0,
        1,
        0,
        0,
        0,
        0,
        1,
        0,
        0,
        1,
        0,
        1
      ],
      "name": "Default Ambient Light"
    },
    {
      "name": "Scene 1",
      "children": [
        1,
        2,
        3,
        4
      ]
    }
  ],
  "extensions": {
    "KHR_lights_punctual": {
      "lights": [
        {
          "name": "Directional Light",
          "color": [
            1,
            1,
            1
          ],
          "intensity": 0.7,
          "type": "directional"
        }
      ]
    }
  },
  "bufferViews": [
    {
      "buffer": 0,
      "byteOffset": 0,
      "byteLength": 36120,
      "target": 34962,
      "byteStride": 12
    },
    {
      "buffer": 0,
      "byteOffset": 36120,
      "byteLength": 36120,
      "target": 34962,
      "byteStride": 12
    },
    {
      "buffer": 0,
      "byteOffset": 72240,
      "byteLength": 24080,
      "target": 34962,
      "byteStride": 8
    },
    {
      "buffer": 0,
      "byteOffset": 96320,
      "byteLength": 64896,
      "target": 34963
    }
  ],
  "buffers": [
    {
      "byteLength": 161216,
      "uri": "data:application/octet-stream;base64,"
    }
  ],
  "accessors": [
    {
      "bufferView": 0,
      "componentType": 5126,
      "count": 3010,
      "max": [
        120.78124237060547,
        102.71774291992188,
        10
      ],
      "min": [
        -120.78124237060547,
        -108.25299835205078,
        0
      ],
      "type": "VEC3"
    },
    {
      "bufferView": 1,
      "componentType": 5126,
      "count": 3010,
      "max": [
        0.9999604225158691,
        0.999623715877533,
        1
      ],
      "min": [
        -0.9999604225158691,
        -1,
        -1
      ],
      "type": "VEC3"
    },
    {
      "bufferView": 2,
      "componentType": 5126,
      "count": 3010,
      "max": [
        1,
        1
      ],
      "min": [
        0,
        0
      ],
      "type": "VEC2"
    },
    {
      "bufferView": 3,
      "componentType": 5125,
      "count": 16224,
      "max": [
        3009
      ],
      "min": [
        0
      ],
      "type": "SCALAR"
    }
  ],
  "meshes": [
    {
      "primitives": [
        {
          "mode": 4,
          "attributes": {
            "POSITION": 0,
            "NORMAL": 1,
            "TEXCOORD_0": 2
          },
          "extras": {
            "shape": {
              "points": [
                0,
                108.253,
                0,
                108.253,
                0,
                108.253,
                10,
                125,
                -108.253,
                125,
                -108.253,
                125,
                -108.253,
                10,
                -125,
                -108.253,
                -125,
                -108.253,
                -125,
                -108.253,
                10
              ],
              "shapeHoles": [],
              "isClosed": true,
              "roundness": 10
            },
            "parameters": {
              "width": 250,
              "depth": 10,
              "spikes": 5,
              "cornerRadius": 10,
              "extrudeBevelSize": 1,
              "extrudeBevelSegments": 10,
              "isRect": false,
              "height": 216.506,
              "type": "TriangleGeometry"
            },
            "type": "TriangleGeometry"
          },
          "indices": 3
        }
      ]
    }
  ],
  "cameras": [
    {
      "type": "perspective",
      "perspective": {
        "aspectRatio": 2.6728826728826727,
        "yfov": 0.7853981633974483,
        "zfar": 100000,
        "znear": 70
      }
    }
  ],
  "extensionsUsed": [
    "KHR_lights_punctual"
  ]
}